<?xml version="1.0" encoding="utf-8"?>
<!-- Generator: Adobe Illustrator 24.1.0, SVG Export Plug-In . SVG Version: 6.00 Build 0)  -->
<svg version="1.1" id="Layer_1" xmlns="http://www.w3.org/2000/svg" xmlns:xlink="http://www.w3.org/1999/xlink" x="0px" y="0px"
	 viewBox="0 0 82 82" style="enable-background:new 0 0 82 82;" xml:space="preserve">
<style type="text/css">
	.st0{fill:#7EC7E3;}
	.st1{fill:none;}
	.st2{fill:#253A7B;}
</style>
<path class="st0" d="M41,4c-5,0-9.8,1-14.4,2.9c-4.4,1.9-8.4,4.5-11.8,7.9s-6.1,7.4-7.9,11.8C5,31.2,4,36,4,41s1,9.8,2.9,14.4
	c1.9,4.4,4.5,8.4,7.9,11.8c3.4,3.4,7.4,6.1,11.8,7.9C31.2,77,36,78,41,78s9.8-1,14.4-2.9c4.4-1.9,8.4-4.5,11.8-7.9
	c3.4-3.4,6.1-7.4,7.9-11.8C77,50.8,78,46,78,41s-1-9.8-2.9-14.4c-1.9-4.4-4.5-8.4-7.9-11.8s-7.4-6.1-11.8-7.9C50.8,5,46,4,41,4
	 M41,0c22.6,0,41,18.4,41,41S63.6,82,41,82S0,63.6,0,41S18.4,0,41,0z"/>
<g id="Group_646" transform="translate(23 1574.277)">
	
		<rect x="-12" y="-1554.3" transform="matrix(0.9997 -2.601814e-02 2.601814e-02 0.9997 39.9401 -5.777319e-02)" class="st1" width="59.5" height="38.8"/>
	<g id="Group_645" transform="translate(0 -25.277)">
		<g id="Group_644" transform="translate(0.615 0.615)">
			<path class="st2" d="M29.2-1490.9l-23.1,0.6c-0.8,0-1.5-0.3-2.1-0.8c-0.6-0.5-0.9-1.3-0.9-2l-0.1-2.5c-0.3-8,6-14.8,14-15.2
				c8.1-0.1,14.7,6.4,14.8,14.4l0.1,2.5C32-1492.3,30.8-1491,29.2-1490.9L29.2-1490.9z M17.1-1509.3c-7.2,0.3-12.8,6.4-12.5,13.6
				l0.1,2.5c0,0.4,0.1,0.7,0.4,1c0.3,0.3,0.6,0.4,1,0.4l3.1-0.1l-0.2-6.6c0-0.4,0.3-0.8,0.7-0.8c0.4,0,0.8,0.3,0.8,0.7l0.2,6.6
				l13.9-0.4l-0.2-6.6c0-0.4,0.3-0.8,0.7-0.8s0.8,0.3,0.8,0.7l0.2,6.6l3.1-0.1c0.8,0,1.4-0.7,1.3-1.4l-0.1-2.5
				C30.3-1503.6,24.4-1509.4,17.1-1509.3z M34.2-1494c-0.4,0-0.8-0.3-0.8-0.7s0.3-0.8,0.7-0.8l6.7-0.2l-0.1-5.5
				c0-0.4,0.3-0.8,0.7-0.8c0.4,0,0.8,0.3,0.8,0.7l0.1,5.5l2.5-0.1c0.3,0,0.5-0.1,0.7-0.3c0.2-0.2,0.3-0.5,0.3-0.8l-0.1-2.1
				c0-2.9-1.2-5.7-3.3-7.7c-2.1-2-4.9-3.2-7.8-3.1l0,0c-1.8,0-3.7,0.6-5.3,1.6c-0.4,0.2-0.8,0.1-1-0.2c-0.2-0.4-0.1-0.8,0.2-1
				c1.8-1.1,3.9-1.7,6-1.8c0,0,0,0,0,0c3.3,0,6.5,1.2,8.9,3.6s3.7,5.4,3.7,8.8l0.1,2.1c0,0.7-0.2,1.3-0.7,1.8
				c-0.5,0.5-1.1,0.8-1.8,0.8L34.2-1494L34.2-1494z M0.7-1493.1l-10.5,0.3c-0.7,0-1.3-0.2-1.8-0.7c-0.5-0.5-0.8-1.1-0.8-1.8
				l-0.1-2.1c-0.3-6.9,5.1-12.7,11.9-12.9l0,0c2.1-0.1,4.3,0.5,6.1,1.5c0.4,0.2,0.5,0.7,0.3,1c-0.2,0.4-0.7,0.5-1,0.3
				c-1.6-0.9-3.5-1.3-5.3-1.3l0,0c-6,0.2-10.7,5.4-10.5,11.4l0.1,2.1c0,0.3,0.1,0.6,0.3,0.8c0.2,0.2,0.5,0.3,0.7,0.3l2.5-0.1
				l-0.1-5.5c0-0.4,0.3-0.8,0.7-0.8c0.4,0,0.8,0.3,0.8,0.7l0.1,5.5l6.5-0.2c0.4,0,0.8,0.3,0.8,0.7C1.5-1493.4,1.1-1493.1,0.7-1493.1
				z M34.7-1512.4c-3.5,0.1-6.5-3.3-6.6-7.5c-0.1-4,2.7-7.3,6.2-7.4c3.5-0.1,6.5,3.1,6.6,7.1C41-1516.1,38.2-1512.5,34.7-1512.4z
				 M34.3-1525.8c-2.7,0.1-4.9,2.7-4.8,5.9c0.1,3.3,2.5,6.1,5.1,6c2.6-0.1,4.9-3,4.8-6.3C39.3-1523.4,37-1525.9,34.3-1525.8z
				 M-0.5-1511.5c-3.5,0.1-6.5-3.3-6.6-7.5c-0.1-4,2.7-7.3,6.2-7.4c3.5-0.1,6.5,3.1,6.6,7.1C5.8-1515.2,3-1511.6-0.5-1511.5z
				 M-0.8-1524.9c-2.7,0.1-4.9,2.7-4.8,5.9c0.1,3.3,2.5,6.1,5.1,6c2.6-0.1,4.9-3,4.8-6.3C4.2-1522.4,1.9-1525-0.8-1524.9z
				 M17.1-1512.4c-4,0.1-7.6-3.9-7.7-8.7c-0.1-4.6,3.1-8.5,7.2-8.6s7.6,3.6,7.7,8.2C24.4-1516.7,21.1-1512.5,17.1-1512.4z
				 M16.7-1528.2c-3.3,0.1-5.9,3.3-5.8,7.1c0.1,3.9,3,7.3,6.2,7.2s5.9-3.6,5.8-7.6C22.7-1525.3,20-1528.3,16.7-1528.2z"/>
		</g>
	</g>
</g>
</svg>
